<svg id="Icon_Outline_configuration-outline" data-name="Icon/Outline/configuration-outline" xmlns="http://www.w3.org/2000/svg" width="32.395" height="32.259" viewBox="0 0 32.395 32.259">
  <g id="Group">
    <g id="Outline">
      <path id="Shape" d="M10.559,0V10.283a11.619,11.619,0,0,0-7.332,3.194A11,11,0,0,0,11,32.258a10.9,10.9,0,0,0,7.778-3.149,11.606,11.606,0,0,0,3.194-7.265h3.311L32.345,14l.05-.054V0ZM29.9,14.116l-4.377,5.353V14.116ZM30.73,1.673V12.879H23.848v7.3H21.958A11.314,11.314,0,0,0,18.9,13.432a11.466,11.466,0,0,0-6.685-3.1V1.673ZM17.55,27.827a9.2,9.2,0,1,1,2.74-6.552A9.271,9.271,0,0,1,17.55,27.827Z" fill="#1b1b1b"/>
      <path id="Shape-2" data-name="Shape" d="M14.535,20.869c.085-.148.2-.265.279-.414s.14-.265.225-.409l1.732-.391.076-3.95-1.723-.45a7.379,7.379,0,0,0-.45-.832l.54-1.7L11.8,10.662l-1.278,1.282a5.21,5.21,0,0,0-.954,0l-1.224-1.35L4.882,12.5l.472,1.723c-.085.148-.2.27-.283.414l-.22.414-1.732.387-.081,3.95,1.754.468a6.954,6.954,0,0,0,.45.828l-.5,1.727L8.12,24.445,9.4,23.168a5.259,5.259,0,0,0,.958,0l1.219,1.35,3.468-1.912Zm-5.182.5-.639-.045-.9.9-1.03-.639.378-1.228-.36-.517a3.455,3.455,0,0,1-.486-.855L6.1,18.382l-1.26-.346.031-1.219,1.269-.27.279-.589a1.271,1.271,0,0,1,.247-.45c.085-.148.171-.234.283-.414l.423-.5-.333-1.264L8.1,12.749l.9.967.634-.076a4.042,4.042,0,0,1,1.017,0l.639.1.936-.922,1.03.643L12.889,14.7l.36.513a4.306,4.306,0,0,1,.486.859l.216.6,1.255.346-.027,1.219-1.39.265-.279.589a1.117,1.117,0,0,1-.247.45c-.059.117-.171.234-.283.414l-.423.5.333,1.264-1,.571-.9-.963-.643.09a2.935,2.935,0,0,1-.99-.05Zm-1.7-3.27a2.249,2.249,0,0,0,.666,1.147,1.987,1.987,0,0,0,.382.31,2.375,2.375,0,1,0,2.456-4.049,2.249,2.249,0,0,0-1.777-.274A2.523,2.523,0,0,0,7.9,16.317a2.438,2.438,0,0,0-.243,1.8m2.11-1.385a.733.733,0,0,1,.643.1l.117.112a.828.828,0,0,1,.144,1.039.818.818,0,0,1-.517.364.724.724,0,0,1-.639-.1.814.814,0,0,1-.288-1.125.9.9,0,0,1,.54-.391" transform="translate(1.062 3.706)" fill="#1b1b1b"/>
    </g>
  </g>
</svg>
